              <svg id="sw-js-blob-svg" viewBox="0 0 100 100" xmlns="http://www.w3.org/2000/svg" version="1.1">
                    <defs> 
                        <linearGradient id="sw-gradient" x1="0" x2="1" y1="1" y2="0">
                            <stop id="stop1" stop-color="rgba(108, 191, 111, 1)" offset="0%"></stop>
                            <stop id="stop2" stop-color="rgba(108, 191, 111, 1)" offset="100%"></stop>
                        </linearGradient>
                    </defs>
                <path fill="url(#sw-gradient)" d="M22.7,-29.9C30.5,-25.7,38.5,-20.4,39.7,-13.6C40.9,-6.9,35.3,1.4,30.6,8.2C25.9,14.9,22.3,20.3,17.3,24.1C12.4,28,6.2,30.4,-1.8,32.9C-9.7,35.3,-19.4,37.7,-25.9,34.3C-32.4,31,-35.7,21.8,-38.6,12.6C-41.4,3.4,-44,-5.8,-42,-14.1C-39.9,-22.4,-33.4,-29.7,-25.7,-34C-18,-38.3,-9,-39.6,-0.7,-38.6C7.5,-37.5,15,-34.2,22.7,-29.9Z" width="100%" height="100%" transform="translate(50 50)" stroke-width="0" style="transition: 0.3s;" stroke="url(#sw-gradient)"></path>
              </svg>